<svg width="22" height="22" viewBox="0 0 22 22" fill="none" xmlns="http://www.w3.org/2000/svg">
<rect x="21" y="21" width="20" height="20" rx="10" transform="rotate(-180 21 21)" fill="white"/>
<path d="M14.1919 11.4419C14.436 11.1979 14.436 10.8021 14.1919 10.5581L10.2145 6.58058C9.97039 6.3365 9.57466 6.3365 9.33058 6.58058C9.08651 6.82466 9.08651 7.22039 9.33058 7.46447L12.8661 11L9.33058 14.5355C9.0865 14.7796 9.0865 15.1753 9.33058 15.4194C9.57466 15.6635 9.97039 15.6635 10.2145 15.4194L14.1919 11.4419ZM13.5 11.625L13.75 11.625L13.75 10.375L13.5 10.375L13.5 11.625Z" fill="#1D252D"/>
<rect x="21" y="21" width="20" height="20" rx="10" transform="rotate(-180 21 21)" stroke="#EEEEEE" stroke-width="1.25"/>
</svg>
