<svg width="16" height="14" viewBox="0 0 16 14" fill="none" xmlns="http://www.w3.org/2000/svg">
<path d="M5.00016 6.33333H3.06683C2.69346 6.33333 2.50678 6.33333 2.36417 6.406C2.23873 6.46991 2.13674 6.5719 2.07283 6.69734C2.00016 6.83995 2.00016 7.02663 2.00016 7.4V13M11.0002 6.33333H12.9335C13.3069 6.33333 13.4935 6.33333 13.6362 6.406C13.7616 6.46991 13.8636 6.5719 13.9275 6.69734C14.0002 6.83995 14.0002 7.02663 14.0002 7.4V13M11.0002 13V3.13333C11.0002 2.3866 11.0002 2.01323 10.8548 1.72801C10.727 1.47713 10.523 1.27316 10.2722 1.14532C9.98693 1 9.61357 1 8.86683 1H7.1335C6.38676 1 6.01339 1 5.72818 1.14532C5.47729 1.27316 5.27332 1.47713 5.14549 1.72801C5.00016 2.01323 5.00016 2.3866 5.00016 3.13333V13M14.6668 13H1.3335M7.3335 3.66667H8.66683M7.3335 6.33333H8.66683M7.3335 9H8.66683" stroke="black" stroke-width="1.33333" stroke-linecap="round" stroke-linejoin="round"/>
</svg>
