<svg width="16" height="17" viewBox="0 0 16 17" fill="none" xmlns="http://www.w3.org/2000/svg">
<path d="M3.83424 15.5C3.52038 15.5 3.2517 15.3858 3.02819 15.1573C2.80469 14.9288 2.69293 14.6542 2.69293 14.3333V3.25H1.58333C1.26117 3.25 1 2.98883 1 2.66667C1 2.3445 1.26117 2.08333 1.58333 2.08333H5.48913C5.48913 1.76117 5.7503 1.5 6.07246 1.5H9.92754C10.2497 1.5 10.5109 1.76117 10.5109 2.08333H14.4167C14.7388 2.08333 15 2.3445 15 2.66667C15 2.98883 14.7388 3.25 14.4167 3.25H13.3071V14.3333C13.3071 14.6444 13.1929 14.9167 12.9647 15.15C12.7364 15.3833 12.4701 15.5 12.1658 15.5H3.83424ZM12.1658 3.25H3.83424V13.4C3.83424 13.9155 4.25211 14.3333 4.76757 14.3333H11.2324C11.7479 14.3333 12.1658 13.9155 12.1658 13.4V3.25ZM5.85054 12.0905C5.85054 12.4056 6.10603 12.6611 6.4212 12.6611C6.73636 12.6611 6.99185 12.4056 6.99185 12.0905V5.47343C6.99185 5.15827 6.73636 4.90278 6.4212 4.90278C6.10603 4.90278 5.85054 5.15827 5.85054 5.47343V12.0905ZM9.00815 12.0905C9.00815 12.4056 9.26364 12.6611 9.5788 12.6611C9.89397 12.6611 10.1495 12.4056 10.1495 12.0905V5.47343C10.1495 5.15827 9.89397 4.90278 9.5788 4.90278C9.26364 4.90278 9.00815 5.15827 9.00815 5.47343V12.0905Z" fill="black"/>
</svg>
