<svg width="102" height="18" viewBox="0 0 102 18" fill="none" xmlns="http://www.w3.org/2000/svg">
<path d="M10.7827 3.29871C10.69 3.46085 10.5896 3.58053 10.4815 3.65775C10.3812 3.72724 10.2538 3.76198 10.0993 3.76198C9.9372 3.76198 9.75961 3.70407 9.56658 3.58825C9.38127 3.46472 9.15736 3.32959 8.89484 3.18289C8.63231 3.03619 8.32347 2.90493 7.96829 2.78911C7.62084 2.66557 7.20775 2.6038 6.72904 2.6038C6.29665 2.6038 5.91831 2.65785 5.59402 2.76595C5.26973 2.86632 4.99562 3.00916 4.77171 3.19447C4.55552 3.37978 4.39337 3.6037 4.28527 3.86622C4.17718 4.12102 4.12313 4.40284 4.12313 4.71169C4.12313 5.10547 4.23122 5.43362 4.44742 5.69615C4.67133 5.95867 4.96474 6.18258 5.32764 6.36789C5.69053 6.5532 6.10362 6.71921 6.56689 6.86591C7.03016 7.01261 7.50502 7.1709 7.99145 7.34076C8.47789 7.50291 8.95275 7.69594 9.41602 7.91985C9.87929 8.13605 10.2924 8.41401 10.6553 8.75375C11.0182 9.08576 11.3077 9.49498 11.5239 9.98142C11.7478 10.4679 11.8598 11.0585 11.8598 11.7534C11.8598 12.5101 11.7285 13.2205 11.466 13.8845C11.2112 14.5408 10.8329 15.116 10.331 15.6102C9.83682 16.0966 9.23071 16.4827 8.51264 16.7684C7.79456 17.0463 6.97225 17.1853 6.04571 17.1853C5.51295 17.1853 4.9879 17.1313 4.47058 17.0232C3.95326 16.9228 3.45524 16.7761 2.97653 16.5831C2.50553 16.39 2.06156 16.1584 1.64462 15.8881C1.22767 15.6179 0.857055 15.3168 0.532764 14.9848L1.44773 13.4907C1.52494 13.3826 1.62532 13.2938 1.74885 13.2243C1.87239 13.1471 2.00365 13.1085 2.14264 13.1085C2.33567 13.1085 2.54414 13.1896 2.76805 13.3517C2.99197 13.5062 3.25835 13.6799 3.5672 13.8729C3.87605 14.0659 4.23508 14.2435 4.64431 14.4057C5.06125 14.5601 5.55927 14.6373 6.13836 14.6373C7.0263 14.6373 7.71349 14.4288 8.19993 14.0119C8.68636 13.5872 8.92958 12.9811 8.92958 12.1935C8.92958 11.7534 8.81762 11.3944 8.59371 11.1164C8.37752 10.8385 8.08797 10.6068 7.72507 10.4215C7.36218 10.2285 6.94909 10.0664 6.48582 9.93509C6.02255 9.80383 5.55155 9.66099 5.07284 9.50656C4.59412 9.35214 4.12313 9.16683 3.65985 8.95064C3.19658 8.73444 2.7835 8.45262 2.4206 8.10516C2.0577 7.75771 1.7643 7.32532 1.54038 6.808C1.32419 6.28296 1.21609 5.63824 1.21609 4.87384C1.21609 4.26386 1.33577 3.66933 1.57513 3.09024C1.82221 2.51115 2.17738 1.99768 2.64065 1.54985C3.10393 1.10202 3.6753 0.742988 4.35476 0.472746C5.03423 0.202504 5.81407 0.0673825 6.69429 0.0673825C7.68261 0.0673825 8.59371 0.221807 9.4276 0.530655C10.2615 0.839503 10.9718 1.27189 11.5587 1.82782L10.7827 3.29871ZM23.0867 10.6763L21.0483 5.10547C20.9479 4.85839 20.8437 4.56499 20.7356 4.22525C20.6275 3.88552 20.5194 3.51876 20.4113 3.12498C20.3109 3.51876 20.2067 3.88938 20.0986 4.23684C19.9905 4.57657 19.8863 4.87384 19.7859 5.12864L17.7591 10.6763H23.0867ZM28.5881 17H26.1791C25.9088 17 25.6888 16.9344 25.5189 16.8031C25.349 16.6641 25.2216 16.4943 25.1367 16.2935L23.8859 12.8769H16.9484L15.6975 16.2935C15.6358 16.4711 15.5161 16.6332 15.3385 16.7799C15.1609 16.9266 14.9408 17 14.6783 17H12.2461L18.8362 0.252691H22.0096L28.5881 17ZM35.7721 10.5142V17H32.6681V10.5142L26.5645 0.252691H29.3094C29.5797 0.252691 29.792 0.318321 29.9464 0.449582C30.1086 0.580843 30.2437 0.746849 30.3518 0.9476L33.4094 6.54162C33.587 6.87363 33.7414 7.18634 33.8727 7.47975C34.0116 7.77315 34.1352 8.06656 34.2433 8.35996C34.3436 8.06656 34.4595 7.77315 34.5907 7.47975C34.722 7.18634 34.8726 6.87363 35.0424 6.54162L38.0884 0.9476C38.1734 0.777733 38.3008 0.619448 38.4706 0.472746C38.6405 0.326042 38.8567 0.252691 39.1192 0.252691H41.8757L35.7721 10.5142ZM45.4299 0.252691V3.58825L45.1751 5.39502C45.1133 5.73475 45.0129 5.99727 44.8739 6.18258C44.735 6.36017 44.5033 6.44896 44.179 6.44896C43.8933 6.44896 43.6733 6.36017 43.5189 6.18258C43.3644 5.99727 43.2563 5.73475 43.1946 5.39502L42.9398 3.58825V0.252691H45.4299ZM51.6357 2.7312V7.37551H57.4961V9.77295H51.6357V14.5099H59.0713V17H48.5086V0.252691H59.0713V2.7312H51.6357ZM71.642 14.4288V17H61.8322V0.252691H64.9478V14.4288H71.642ZM83.6763 14.4288V17H73.8665V0.252691H76.982V14.4288H83.6763ZM101.284 8.62635C101.284 9.85402 101.079 10.9929 100.67 12.043C100.269 13.0853 99.6972 13.9887 98.956 14.7531C98.2147 15.5175 97.3229 16.1159 96.2806 16.5483C95.2382 16.973 94.08 17.1853 92.806 17.1853C91.5397 17.1853 90.3854 16.973 89.343 16.5483C88.3007 16.1159 87.405 15.5175 86.6561 14.7531C85.9148 13.9887 85.3396 13.0853 84.9304 12.043C84.5211 10.9929 84.3165 9.85402 84.3165 8.62635C84.3165 7.39867 84.5211 6.26365 84.9304 5.22129C85.3396 4.17121 85.9148 3.26396 86.6561 2.49956C87.405 1.73516 88.3007 1.14063 89.343 0.715964C90.3854 0.283576 91.5397 0.0673825 92.806 0.0673825C93.6553 0.0673825 94.4545 0.167758 95.2034 0.368509C95.9524 0.56154 96.6396 0.839503 97.265 1.2024C97.8904 1.55758 98.4502 1.99382 98.9444 2.51115C99.4463 3.02075 99.8709 3.59212 100.218 4.22525C100.566 4.85839 100.828 5.54558 101.006 6.28682C101.191 7.02805 101.284 7.8079 101.284 8.62635ZM98.0989 8.62635C98.0989 7.70752 97.9754 6.88521 97.7283 6.15942C97.4812 5.4259 97.1299 4.80435 96.6743 4.29475C96.2188 3.78515 95.6629 3.39522 95.0066 3.12498C94.358 2.85474 93.6245 2.71962 92.806 2.71962C91.9876 2.71962 91.2502 2.85474 90.5939 3.12498C89.9453 3.39522 89.3894 3.78515 88.9261 4.29475C88.4705 4.80435 88.1192 5.4259 87.8722 6.15942C87.6251 6.88521 87.5015 7.70752 87.5015 8.62635C87.5015 9.54517 87.6251 10.3713 87.8722 11.1049C88.1192 11.8306 88.4705 12.4483 88.9261 12.9579C89.3894 13.4598 89.9453 13.8459 90.5939 14.1161C91.2502 14.3864 91.9876 14.5215 92.806 14.5215C93.6245 14.5215 94.358 14.3864 95.0066 14.1161C95.6629 13.8459 96.2188 13.4598 96.6743 12.9579C97.1299 12.4483 97.4812 11.8306 97.7283 11.1049C97.9754 10.3713 98.0989 9.54517 98.0989 8.62635Z" fill="url(#paint0_linear_1408_1189)"/>
<defs>
<linearGradient id="paint0_linear_1408_1189" x1="-7.43889" y1="-1.17242" x2="102.874" y2="33.8279" gradientUnits="userSpaceOnUse">
<stop stop-color="#EE2C63"/>
<stop offset="1" stop-color="#FDB515"/>
</linearGradient>
</defs>
</svg>
