<svg width="12" height="18" viewBox="0 0 12 18" fill="none" xmlns="http://www.w3.org/2000/svg">
<path d="M10.2827 3.79871C10.19 3.96085 10.0896 4.08053 9.98155 4.15775C9.88117 4.22724 9.75377 4.26198 9.59935 4.26198C9.4372 4.26198 9.25961 4.20407 9.06658 4.08825C8.88127 3.96472 8.65736 3.82959 8.39484 3.68289C8.13231 3.53619 7.82347 3.40493 7.46829 3.28911C7.12084 3.16557 6.70775 3.1038 6.22904 3.1038C5.79665 3.1038 5.41831 3.15785 5.09402 3.26595C4.76973 3.36632 4.49562 3.50916 4.27171 3.69447C4.05552 3.87978 3.89337 4.1037 3.78527 4.36622C3.67718 4.62102 3.62313 4.90284 3.62313 5.21169C3.62313 5.60547 3.73122 5.93362 3.94742 6.19615C4.17133 6.45867 4.46474 6.68258 4.82764 6.86789C5.19053 7.0532 5.60362 7.21921 6.06689 7.36591C6.53016 7.51261 7.00502 7.6709 7.49145 7.84076C7.97789 8.00291 8.45275 8.19594 8.91602 8.41985C9.37929 8.63605 9.79238 8.91401 10.1553 9.25375C10.5182 9.58576 10.8077 9.99498 11.0239 10.4814C11.2478 10.9679 11.3598 11.5585 11.3598 12.2534C11.3598 13.0101 11.2285 13.7205 10.966 14.3845C10.7112 15.0408 10.3329 15.616 9.83098 16.1102C9.33682 16.5966 8.73071 16.9827 8.01264 17.2684C7.29456 17.5463 6.47225 17.6853 5.54571 17.6853C5.01295 17.6853 4.4879 17.6313 3.97058 17.5232C3.45326 17.4228 2.95524 17.2761 2.47653 17.0831C2.00553 16.89 1.56156 16.6584 1.14462 16.3881C0.727673 16.1179 0.357055 15.8168 0.0327637 15.4848L0.947727 13.9907C1.02494 13.8826 1.12532 13.7938 1.24885 13.7243C1.37239 13.6471 1.50365 13.6085 1.64264 13.6085C1.83567 13.6085 2.04414 13.6896 2.26805 13.8517C2.49197 14.0062 2.75835 14.1799 3.0672 14.3729C3.37605 14.5659 3.73508 14.7435 4.14431 14.9057C4.56125 15.0601 5.05927 15.1373 5.63836 15.1373C6.5263 15.1373 7.21349 14.9288 7.69993 14.5119C8.18636 14.0872 8.42958 13.4811 8.42958 12.6935C8.42958 12.2534 8.31762 11.8944 8.09371 11.6164C7.87752 11.3385 7.58797 11.1068 7.22507 10.9215C6.86218 10.7285 6.44909 10.5664 5.98582 10.4351C5.52255 10.3038 5.05155 10.161 4.57284 10.0066C4.09412 9.85214 3.62313 9.66683 3.15985 9.45064C2.69658 9.23444 2.2835 8.95262 1.9206 8.60516C1.5577 8.25771 1.2643 7.82532 1.04038 7.308C0.824188 6.78296 0.716091 6.13824 0.716091 5.37384C0.716091 4.76386 0.83577 4.16933 1.07513 3.59024C1.32221 3.01115 1.67738 2.49768 2.14065 2.04985C2.60393 1.60202 3.1753 1.24299 3.85476 0.972746C4.53423 0.702504 5.31407 0.567382 6.19429 0.567382C7.18261 0.567382 8.09371 0.721807 8.9276 1.03065C9.76149 1.3395 10.4718 1.77189 11.0587 2.32782L10.2827 3.79871Z" fill="url(#paint0_linear_966_9096)"/>
<defs>
<linearGradient id="paint0_linear_966_9096" x1="-1.43889" y1="-0.672415" x2="13.8612" y2="-0.0597193" gradientUnits="userSpaceOnUse">
<stop stop-color="#EE2C63"/>
<stop offset="1" stop-color="#FDB515"/>
</linearGradient>
</defs>
</svg>
