<svg width="174" height="165" viewBox="0 0 174 165" fill="none" xmlns="http://www.w3.org/2000/svg">
<path fill-rule="evenodd" clip-rule="evenodd" d="M166.162 15.6757C170.491 15.6757 174 12.1665 174 7.83783C174 3.50912 170.491 0 166.162 0C161.833 0 158.324 3.50912 158.324 7.83783C158.324 9.51417 158.851 11.0676 159.747 12.3419L85.7301 130.866C85.266 131.609 84.2829 131.827 83.5477 131.35L43.135 105.149C39.9482 103.083 35.6866 104.031 33.6763 107.253L0.396331 160.599C-0.367397 161.823 0.00589829 163.435 1.23011 164.198C2.45432 164.962 4.06587 164.589 4.82959 163.365L38.1096 110.019C38.5735 109.275 39.557 109.056 40.2924 109.533L80.7051 135.735C83.8908 137.8 88.151 136.854 90.1621 133.633L164.012 15.377C164.695 15.5715 165.416 15.6757 166.162 15.6757Z" fill="#80D7FE"/>
</svg>
