<svg width="15" height="15" viewBox="0 0 15 15" fill="none" xmlns="http://www.w3.org/2000/svg">
<path d="M0.917381 11.5766C0.94801 11.301 0.963324 11.1632 1.00503 11.0343C1.04203 10.92 1.09431 10.8113 1.16045 10.711C1.23499 10.5979 1.33305 10.4999 1.52917 10.3037L10.3334 1.49955C11.0698 0.76317 12.2637 0.763171 13 1.49955C13.7364 2.23593 13.7364 3.42984 13 4.16622L4.19584 12.9704C3.99972 13.1665 3.90166 13.2646 3.78861 13.3391C3.68832 13.4053 3.57955 13.4575 3.46525 13.4945C3.33642 13.5362 3.19859 13.5516 2.92293 13.5822L0.666687 13.8329L0.917381 11.5766Z" stroke="black" stroke-width="1.33333" stroke-linecap="round" stroke-linejoin="round"/>
</svg>
