<svg width="22" height="22" viewBox="0 0 22 22" fill="none" xmlns="http://www.w3.org/2000/svg">
<rect x="1" y="1" width="20" height="20" rx="10" fill="white"/>
<path d="M7.80806 10.5581C7.56398 10.8021 7.56398 11.1979 7.80806 11.4419L11.7855 15.4194C12.0296 15.6635 12.4253 15.6635 12.6694 15.4194C12.9135 15.1753 12.9135 14.7796 12.6694 14.5355L9.13388 11L12.6694 7.46447C12.9135 7.22039 12.9135 6.82466 12.6694 6.58058C12.4253 6.33651 12.0296 6.33651 11.7855 6.58058L7.80806 10.5581ZM8.5 10.375L8.25 10.375L8.25 11.625L8.5 11.625L8.5 10.375Z" fill="#1D252D"/>
<rect x="1" y="1" width="20" height="20" rx="10" stroke="#EEEEEE" stroke-width="1.25"/>
</svg>
