<svg width="16" height="15" viewBox="0 0 16 15" fill="none" xmlns="http://www.w3.org/2000/svg">
<path d="M5.00001 6.83333H3.06668C2.69331 6.83333 2.50662 6.83333 2.36402 6.906C2.23858 6.96991 2.13659 7.0719 2.07267 7.19734C2.00001 7.33995 2.00001 7.52663 2.00001 7.9V13.5M11 6.83333H12.9333C13.3067 6.83333 13.4934 6.83333 13.636 6.906C13.7614 6.96991 13.8634 7.0719 13.9273 7.19734C14 7.33995 14 7.52663 14 7.9V13.5M11 13.5V3.63333C11 2.8866 11 2.51323 10.8547 2.22801C10.7269 1.97713 10.5229 1.77316 10.272 1.64532C9.98678 1.5 9.61341 1.5 8.86668 1.5H7.13334C6.38661 1.5 6.01324 1.5 5.72802 1.64532C5.47714 1.77316 5.27317 1.97713 5.14533 2.22801C5.00001 2.51323 5.00001 2.8866 5.00001 3.63333V13.5M14.6667 13.5H1.33334M7.33334 4.16667H8.66668M7.33334 6.83333H8.66668M7.33334 9.5H8.66668" stroke="white" stroke-width="1.33333" stroke-linecap="round" stroke-linejoin="round"/>
</svg>
