<svg width="512" height="512" viewBox="0 0 512 512" fill="none" xmlns="http://www.w3.org/2000/svg">
<rect width="512" height="512" rx="100" fill="#F8F8F8"/>
<mask id="mask0_8_1074" style="mask-type:luminance" maskUnits="userSpaceOnUse" x="271" y="101" width="157" height="309">
<path d="M272.015 128.466C272.013 133.936 273.113 139.351 275.251 144.386L311.813 169.041L372.211 209.723L353.034 221.479L329.501 235.91L281.657 206.617C280.413 205.856 279.09 205.234 277.71 204.762C273.221 212.349 271.325 221.192 272.31 229.953C273.295 238.714 277.106 246.915 283.167 253.317L290.415 257.631L292.097 258.667L290.825 259.422L282.067 264.793C276.384 271.305 272.929 279.462 272.203 288.075C271.478 296.688 273.52 305.308 278.033 312.679C279.088 312.271 280.105 311.773 281.075 311.191L329.501 281.51L352.948 295.876L370.895 306.877L301.632 349.328L282.779 360.868C276.827 367.313 273.124 375.514 272.226 384.241C271.328 392.967 273.282 401.75 277.796 409.273C278.922 408.861 280.006 408.341 281.032 407.72L347.21 367.49L418.566 323.831C422.302 321.539 425.16 318.058 426.682 313.947C428.203 309.836 428.3 305.333 426.957 301.161C425.435 296.633 422.334 292.805 418.221 290.375L408.363 284.314L373.268 262.83L366.796 258.925L417.962 227.562C421.975 225.174 425.028 221.458 426.59 217.057C427.996 212.987 428.018 208.566 426.652 204.482C425.287 200.398 422.611 196.879 419.04 194.472L348.569 147.017L281.7 101.999C275.261 109.37 271.719 118.83 271.735 128.617" fill="white"/>
</mask>
<g mask="url(#mask0_8_1074)">
<path d="M429.718 101.849H272.015V409.618H429.718V101.849Z" fill="url(#paint0_linear_8_1074)"/>
</g>
<mask id="mask1_8_1074" style="mask-type:luminance" maskUnits="userSpaceOnUse" x="84" y="101" width="158" height="309">
<path d="M164.033 146.866L93.5616 194.322C89.9965 196.734 87.325 200.253 85.9604 204.335C84.5957 208.417 84.6139 212.835 86.0119 216.906C87.5746 221.307 90.6267 225.023 94.6402 227.411L145.806 258.775L139.334 262.679L104.325 284.12L94.4676 290.182C90.3954 292.631 87.3346 296.457 85.8394 300.967C84.4961 305.14 84.593 309.642 86.1146 313.753C87.6361 317.864 90.4942 321.345 94.2303 323.638L165.694 367.491L231.851 408.022C232.877 408.643 233.96 409.163 235.086 409.575C239.6 402.053 241.555 393.27 240.656 384.543C239.758 375.816 236.055 367.616 230.104 361.171L211.251 349.63L141.988 307.179L159.934 296.178L183.446 281.769L231.851 311.407C232.82 311.989 233.838 312.487 234.892 312.895C239.405 305.524 241.448 296.904 240.722 288.291C239.997 279.678 236.541 271.522 230.859 265.009L222.101 259.638L220.85 258.883L222.532 257.847L229.758 253.533C235.859 247.118 239.695 238.884 240.68 230.087C241.666 221.289 239.747 212.411 235.216 204.805C233.836 205.277 232.512 205.899 231.268 206.66L183.446 235.91L159.956 221.522L140.78 209.766L201.177 169.084L237.847 144.429C240.806 137.396 241.724 129.671 240.495 122.14C239.267 114.61 235.942 107.577 230.902 101.849L164.033 146.866Z" fill="white"/>
</mask>
<g mask="url(#mask1_8_1074)">
<path d="M240.867 101.849H83.1647V409.618H240.867V101.849Z" fill="url(#paint1_linear_8_1074)"/>
</g>
<defs>
<linearGradient id="paint0_linear_8_1074" x1="85.0954" y1="282.09" x2="402.939" y2="282.09" gradientUnits="userSpaceOnUse">
<stop stop-color="#FBB040"/>
<stop offset="0.49" stop-color="#FACC3A"/>
<stop offset="1" stop-color="#F9ED32"/>
</linearGradient>
<linearGradient id="paint1_linear_8_1074" x1="85.0957" y1="282.09" x2="402.939" y2="282.09" gradientUnits="userSpaceOnUse">
<stop stop-color="#FBB040"/>
<stop offset="0.49" stop-color="#FACC3A"/>
<stop offset="1" stop-color="#F9ED32"/>
</linearGradient>
</defs>
</svg>
