<svg width="28" height="27" viewBox="0 0 28 27" fill="none" xmlns="http://www.w3.org/2000/svg">
<path d="M14.0003 0.166992C11.3632 0.166992 8.78538 0.948979 6.59273 2.41406C4.40007 3.87915 2.69111 5.96153 1.68194 8.39788C0.672769 10.8342 0.408725 13.5151 0.923194 16.1015C1.43766 18.6879 2.70754 21.0637 4.57224 22.9284C6.43694 24.7931 8.81271 26.063 11.3991 26.5775C13.9855 27.0919 16.6664 26.8279 19.1028 25.8187C21.5391 24.8096 23.6215 23.1006 25.0866 20.9079C26.5517 18.7153 27.3337 16.1374 27.3337 13.5003C27.3337 11.7494 26.9888 10.0156 26.3187 8.39788C25.6487 6.7802 24.6665 5.31035 23.4284 4.07224C22.1903 2.83412 20.7205 1.85199 19.1028 1.18193C17.4851 0.511869 15.7513 0.166992 14.0003 0.166992V0.166992ZM14.0003 24.167C11.1714 24.167 8.45825 23.0432 6.45786 21.0428C4.45747 19.0424 3.33366 16.3293 3.33366 13.5003C3.33072 11.1315 4.12435 8.83039 5.587 6.96699L20.5337 21.9137C18.6703 23.3763 16.3692 24.1699 14.0003 24.167V24.167ZM22.4137 20.0337L7.467 5.08699C9.33039 3.62435 11.6315 2.83071 14.0003 2.83366C16.8293 2.83366 19.5424 3.95747 21.5428 5.95785C23.5432 7.95824 24.667 10.6713 24.667 13.5003C24.6699 15.8692 23.8763 18.1703 22.4137 20.0337Z" fill="#E43030"/>
</svg>
