<svg width="18" height="18" viewBox="0 0 18 18" fill="none" xmlns="http://www.w3.org/2000/svg">
<g id="Icons">
<path id="Vector" d="M4.31352 16.875C3.96043 16.875 3.65816 16.7465 3.40672 16.4895C3.15527 16.2324 3.02955 15.9234 3.02955 15.5625V3.09375H1.78125C1.41881 3.09375 1.125 2.79994 1.125 2.4375C1.125 2.07506 1.41881 1.78125 1.78125 1.78125H6.17527C6.17527 1.41881 6.46908 1.125 6.83152 1.125H11.1685C11.5309 1.125 11.8247 1.41881 11.8247 1.78125H16.2188C16.5812 1.78125 16.875 2.07506 16.875 2.4375C16.875 2.79994 16.5812 3.09375 16.2187 3.09375H14.9704V15.5625C14.9704 15.9125 14.8421 16.2187 14.5853 16.4812C14.3285 16.7437 14.0289 16.875 13.6865 16.875H4.31352ZM13.6865 3.09375H4.31352V14.5125C4.31352 15.0924 4.78362 15.5625 5.36352 15.5625H12.6365C13.2164 15.5625 13.6865 15.0924 13.6865 14.5125V3.09375ZM6.58186 13.0393C6.58186 13.3938 6.86929 13.6813 7.22384 13.6813C7.5784 13.6813 7.86583 13.3938 7.86583 13.0393V5.59511C7.86583 5.24055 7.5784 4.95312 7.22384 4.95312C6.86929 4.95312 6.58186 5.24055 6.58186 5.59511V13.0393ZM10.1342 13.0393C10.1342 13.3938 10.4216 13.6813 10.7762 13.6813C11.1307 13.6813 11.4181 13.3938 11.4181 13.0393V5.59511C11.4181 5.24055 11.1307 4.95312 10.7762 4.95312C10.4216 4.95312 10.1342 5.24055 10.1342 5.59511V13.0393Z" fill="#E43030"/>
</g>
</svg>
