<svg width="696" height="110" viewBox="0 0 696 110" fill="none" xmlns="http://www.w3.org/2000/svg">
<g opacity="0.85" clip-path="url(#clip0_7_542)">
<path d="M147.324 110.655C147.324 90.2696 163.853 73.7401 184.238 73.7401C204.623 73.7401 221.153 90.2696 221.153 110.655C221.153 131.084 204.623 147.613 184.238 147.613C163.853 147.613 147.324 131.084 147.324 110.655Z" fill="#EE2964"/>
<path d="M167.753 110.655C167.753 101.57 175.109 94.1698 184.238 94.1698C193.323 94.1698 200.723 101.57 200.723 110.655C200.723 119.784 193.323 127.185 184.238 127.185C175.109 127.185 167.753 119.784 167.753 110.655Z" fill="#FFCF48"/>
<path d="M147.324 73.7401L147.324 -0.089023C188.094 -0.0890212 221.153 32.9701 221.153 73.7401L147.324 73.7401Z" fill="#E9E5D9" fill-opacity="0.5"/>
<path d="M73.4493 73.741C73.4493 32.9711 106.508 -0.0880755 147.323 -0.0880737L147.323 73.7411L73.4493 73.741Z" fill="#EE2964"/>
<path d="M105.314 73.7407C105.314 50.5639 124.103 31.7742 147.324 31.7742L147.324 73.7407L105.314 73.7407Z" fill="#FFCF48"/>
<path d="M73.4509 147.613L73.4509 73.7401L147.324 73.7401L147.324 147.613L73.4509 147.613Z" fill="#0A335B"/>
<path d="M94.587 126.476L94.587 94.8797L126.184 94.8797L126.184 126.476L94.587 126.476Z" fill="#E9E5D9"/>
<path d="M-0.378672 147.613L-0.378668 73.7401L73.4504 73.7401L73.4504 147.613L-0.378672 147.613Z" fill="#FFCF48"/>
<path d="M-0.378639 36.8257C-0.378639 16.4407 16.1509 -0.0888697 36.5359 -0.0888688C56.9209 -0.0888679 73.4505 16.4407 73.4505 36.8257C73.4505 57.2107 56.9209 73.7403 36.5359 73.7403C16.1509 73.7403 -0.37864 57.2107 -0.378639 36.8257Z" fill="#0A335B"/>
<path d="M20.0502 36.8261C20.0502 27.7415 27.4509 20.3409 36.5355 20.3409C45.6201 20.3409 53.0207 27.7415 53.0207 36.8261C53.0207 45.9107 45.6201 53.3114 36.5355 53.3114C27.4508 53.3114 20.0502 45.9107 20.0502 36.8261Z" fill="#EE2964"/>
<path d="M46.8619 82.9577C46.8619 83.8883 47.2607 84.8189 47.9254 85.4837C48.5902 86.1484 49.5208 86.5472 50.4514 86.5472C51.382 86.5472 52.3126 86.1484 52.9774 85.4837C53.6421 84.8189 54.0409 83.8883 54.0409 82.9577C54.0409 82.0271 53.6421 81.0964 52.9774 80.4317C52.3126 79.767 51.382 79.3681 50.4514 79.3681C49.5208 79.3681 48.5902 79.767 47.9254 80.4317C47.2607 81.0964 46.8619 82.0271 46.8619 82.9577Z" fill="#F9FBFC"/>
<path d="M46.8619 101.392C46.8619 103.386 48.4572 104.982 50.4514 104.982C52.4013 104.982 54.041 103.386 54.041 101.392C54.041 99.4423 52.4013 97.8026 50.4514 97.8026C48.4572 97.8026 46.8619 99.4423 46.8619 101.392Z" fill="#F9FBFC"/>
<path d="M61.5747 82.9576C61.5747 83.8882 61.9292 84.8189 62.5939 85.4836C63.2586 86.1483 64.1893 86.5471 65.1199 86.5471C66.0948 86.5471 67.0254 86.1483 67.6902 85.4836C68.3549 84.8189 68.7094 83.8882 68.7094 82.9576C68.7094 82.027 68.3549 81.0964 67.6902 80.4316C67.0254 79.7669 66.0948 79.3681 65.1199 79.3681C64.1893 79.3681 63.2586 79.7669 62.5939 80.4316C61.9292 81.0964 61.5747 82.027 61.5747 82.9576Z" fill="#F9FBFC"/>
<path d="M61.5747 101.392C61.5747 103.386 63.17 104.982 65.1199 104.982C67.1141 104.982 68.7094 103.386 68.7094 101.392C68.7094 99.4423 67.1141 97.8026 65.1199 97.8026C63.17 97.8026 61.5747 99.4423 61.5747 101.392Z" fill="#F9FBFC"/>
<path d="M32.1939 82.9577C32.1939 83.8883 32.5484 84.8189 33.2131 85.4837C33.8779 86.1484 34.8085 86.5472 35.7391 86.5472C36.714 86.5472 37.6003 86.1484 38.2651 85.4837C38.9298 84.8189 39.3286 83.8883 39.3286 82.9577C39.3286 82.0271 38.9298 81.0964 38.2651 80.4317C37.6003 79.767 36.714 79.3681 35.7391 79.3681C34.8085 79.3681 33.8779 79.767 33.2131 80.4317C32.5484 81.0964 32.1939 82.0271 32.1939 82.9577Z" fill="#F9FBFC"/>
<path d="M32.1939 101.392C32.1939 103.386 33.7893 104.982 35.7391 104.982C37.7333 104.982 39.3287 103.386 39.3287 101.392C39.3287 99.4423 37.7333 97.8026 35.7391 97.8026C33.7893 97.8026 32.1939 99.4423 32.1939 101.392Z" fill="#F9FBFC"/>
<path d="M17.4816 82.9577C17.4816 83.8883 17.8804 84.8189 18.5452 85.4837C19.2099 86.1484 20.0962 86.5472 21.0711 86.5472C22.0018 86.5472 22.9324 86.1484 23.5971 85.4837C24.2618 84.8189 24.6164 83.8883 24.6164 82.9577C24.6164 82.0271 24.2618 81.0964 23.5971 80.4317C22.9324 79.767 22.0018 79.3681 21.0711 79.3681C20.0962 79.3681 19.2099 79.767 18.5452 80.4317C17.8804 81.0964 17.4816 82.0271 17.4816 82.9577Z" fill="#F9FBFC"/>
<path d="M17.4816 101.392C17.4816 103.386 19.077 104.982 21.0712 104.982C23.021 104.982 24.6164 103.386 24.6164 101.392C24.6164 99.4423 23.021 97.8026 21.0712 97.8026C19.077 97.8026 17.4816 99.4423 17.4816 101.392Z" fill="#F9FBFC"/>
<path d="M2.76876 82.9577C2.76876 83.8883 3.1676 84.8189 3.83232 85.4837C4.49705 86.1484 5.42766 86.5472 6.35828 86.5472C7.2889 86.5472 8.21952 86.1484 8.88425 85.4837C9.54898 84.8189 9.94781 83.8883 9.94781 82.9577C9.94781 82.0271 9.54898 81.0964 8.88425 80.4317C8.21953 79.767 7.2889 79.3681 6.35828 79.3681C5.42766 79.3681 4.49705 79.767 3.83232 80.4317C3.1676 81.0964 2.76876 82.0271 2.76876 82.9577Z" fill="#F9FBFC"/>
<path d="M2.76876 101.392C2.76876 103.386 4.40841 104.982 6.35828 104.982C8.35247 104.982 9.94781 103.386 9.94781 101.392C9.94781 99.4423 8.35247 97.8026 6.35828 97.8026C4.40841 97.8026 2.76876 99.4423 2.76876 101.392Z" fill="#F9FBFC"/>
<g clip-path="url(#clip1_7_542)">
<path d="M220.842 73.7407C220.842 32.9707 187.783 -0.0884112 146.969 -0.0884094L146.969 73.7407L220.842 73.7407Z" fill="#EE2964"/>
<path d="M220.841 147.614L220.841 73.7401L146.967 73.7401L146.967 147.614L220.841 147.614Z" fill="#0A335B"/>
<path d="M294.67 147.614L294.67 73.7401L220.841 73.7401L220.841 147.614L294.67 147.614Z" fill="#FFCF48"/>
<path d="M294.67 36.8253C294.67 16.4404 278.141 -0.0892054 257.756 -0.0892045C237.371 -0.0892036 220.841 16.4404 220.841 36.8253C220.841 57.2103 237.371 73.7399 257.756 73.7399C278.141 73.7399 294.67 57.2103 294.67 36.8253Z" fill="#0A335B"/>
<path d="M274.241 36.8258C274.241 27.7412 266.841 20.3405 257.756 20.3405C248.671 20.3405 241.271 27.7412 241.271 36.8258C241.271 45.9104 248.671 53.311 257.756 53.311C266.841 53.311 274.241 45.9104 274.241 36.8258Z" fill="#EE2964"/>
<path d="M368.545 73.7407C368.545 32.9707 335.486 -0.0884112 294.671 -0.0884094L294.671 73.7407L368.545 73.7407Z" fill="#E9E5D9" fill-opacity="0.5"/>
<path d="M368.545 147.614L368.545 73.7401L294.671 73.7401L294.671 147.614L368.545 147.614Z" fill="#0A335B"/>
<path d="M368.545 147.614L368.545 73.7401L294.671 147.614L368.545 147.614Z" fill="#0A335B"/>
<path d="M442.374 73.7399C442.374 32.9699 475.433 -0.0892043 516.247 -0.0892061L516.247 73.7399L442.374 73.7399Z" fill="#EE2964"/>
<path d="M442.374 73.7401L516.247 73.7401L516.247 147.614C475.433 147.614 442.374 114.554 442.374 73.7401Z" fill="#FFCF48"/>
<path d="M473.572 73.7404C473.572 50.1647 492.672 31.0649 516.247 31.0649L516.247 73.7404L473.572 73.7404Z" fill="#1D252D"/>
<path d="M473.571 73.7401L516.247 73.7401L516.247 116.416C492.671 116.416 473.571 97.3158 473.571 73.7401Z" fill="#1D252D"/>
<path d="M368.545 73.7409C409.315 73.7409 442.374 106.8 442.374 147.614C401.604 147.614 368.545 114.555 368.545 73.7409Z" fill="#EE2964"/>
<path d="M247.429 82.9574C247.429 83.888 247.031 84.8186 246.366 85.4833C245.701 86.1481 244.771 86.5469 243.84 86.5469C242.909 86.5469 241.979 86.1481 241.314 85.4833C240.649 84.8186 240.25 83.888 240.25 82.9574C240.25 82.0268 240.649 81.0961 241.314 80.4314C241.979 79.7667 242.909 79.3678 243.84 79.3678C244.771 79.3678 245.701 79.7667 246.366 80.4314C247.031 81.0961 247.429 82.0268 247.429 82.9574Z" fill="#F9FBFC"/>
<path d="M247.43 101.392C247.43 103.386 245.834 104.981 243.84 104.981C241.89 104.981 240.25 103.386 240.25 101.392C240.25 99.442 241.89 97.8024 243.84 97.8024C245.834 97.8024 247.43 99.442 247.43 101.392Z" fill="#F9FBFC"/>
<path d="M232.717 82.9574C232.717 83.888 232.362 84.8186 231.697 85.4833C231.033 86.1481 230.102 86.5469 229.171 86.5469C228.196 86.5469 227.266 86.1481 226.601 85.4833C225.936 84.8186 225.582 83.888 225.582 82.9574C225.582 82.0268 225.936 81.0961 226.601 80.4314C227.266 79.7667 228.196 79.3678 229.171 79.3678C230.102 79.3678 231.033 79.7667 231.697 80.4314C232.362 81.0961 232.717 82.0268 232.717 82.9574Z" fill="#F9FBFC"/>
<path d="M232.717 101.392C232.717 103.386 231.121 104.981 229.171 104.981C227.177 104.981 225.582 103.386 225.582 101.392C225.582 99.442 227.177 97.8024 229.171 97.8024C231.121 97.8024 232.717 99.442 232.717 101.392Z" fill="#F9FBFC"/>
<path d="M262.097 82.9574C262.097 83.888 261.743 84.8186 261.078 85.4833C260.413 86.1481 259.483 86.5469 258.552 86.5469C257.577 86.5469 256.691 86.1481 256.026 85.4833C255.362 84.8186 254.963 83.888 254.963 82.9574C254.963 82.0268 255.362 81.0961 256.026 80.4314C256.691 79.7667 257.577 79.3678 258.552 79.3678C259.483 79.3678 260.413 79.7667 261.078 80.4314C261.743 81.0961 262.097 82.0268 262.097 82.9574Z" fill="#F9FBFC"/>
<path d="M262.097 101.392C262.097 103.386 260.502 104.981 258.552 104.981C256.558 104.981 254.963 103.386 254.963 101.392C254.963 99.442 256.558 97.8024 258.552 97.8024C260.502 97.8024 262.097 99.442 262.097 101.392Z" fill="#F9FBFC"/>
<path d="M276.81 82.9574C276.81 83.888 276.411 84.8186 275.746 85.4833C275.081 86.1481 274.195 86.5469 273.22 86.5469C272.29 86.5469 271.359 86.1481 270.694 85.4833C270.029 84.8186 269.675 83.888 269.675 82.9574C269.675 82.0268 270.029 81.0961 270.694 80.4314C271.359 79.7667 272.29 79.3678 273.22 79.3678C274.195 79.3678 275.081 79.7667 275.746 80.4314C276.411 81.0961 276.81 82.0268 276.81 82.9574Z" fill="#F9FBFC"/>
<path d="M276.81 101.392C276.81 103.386 275.214 104.981 273.22 104.981C271.27 104.981 269.675 103.386 269.675 101.392C269.675 99.442 271.27 97.8024 273.22 97.8024C275.214 97.8024 276.81 99.442 276.81 101.392Z" fill="#F9FBFC"/>
<path d="M291.523 82.9574C291.523 83.888 291.124 84.8186 290.459 85.4833C289.794 86.1481 288.864 86.5469 287.933 86.5469C287.002 86.5469 286.072 86.1481 285.407 85.4833C284.742 84.8186 284.344 83.888 284.344 82.9574C284.344 82.0268 284.742 81.0961 285.407 80.4314C286.072 79.7667 287.002 79.3678 287.933 79.3678C288.864 79.3678 289.794 79.7667 290.459 80.4314C291.124 81.0961 291.523 82.0268 291.523 82.9574Z" fill="#F9FBFC"/>
<path d="M291.523 101.392C291.523 103.386 289.883 104.981 287.933 104.981C285.939 104.981 284.343 103.386 284.343 101.392C284.343 99.442 285.939 97.8024 287.933 97.8024C289.883 97.8024 291.523 99.442 291.523 101.392Z" fill="#F9FBFC"/>
</g>
<path d="M663.594 73.7407C663.594 32.9707 696.653 -0.0884417 737.468 -0.0884399L737.468 73.7407L663.594 73.7407Z" fill="#E9E5D9" fill-opacity="0.5"/>
<path d="M663.594 147.613L663.594 73.74L737.468 73.74L737.468 147.613L663.594 147.613Z" fill="#0A335B"/>
<path d="M663.594 147.613L663.594 73.74L737.468 147.613L663.594 147.613Z" fill="#0A335B"/>
<path d="M589.765 73.7399C589.765 32.9699 556.706 -0.0892348 515.892 -0.0892366L515.892 73.7399L589.765 73.7399Z" fill="#EE2964"/>
<path d="M589.765 73.7401L515.892 73.7401L515.892 147.614C556.706 147.614 589.765 114.554 589.765 73.7401Z" fill="#FFCF48"/>
<path d="M558.567 73.7404C558.567 50.1647 539.467 31.0649 515.892 31.0649L515.892 73.7404L558.567 73.7404Z" fill="#1D252D"/>
<path d="M558.567 73.7401L515.892 73.7401L515.892 116.416C539.467 116.416 558.567 97.3158 558.567 73.7401Z" fill="#1D252D"/>
<path d="M663.594 73.7409C622.824 73.7409 589.765 106.8 589.765 147.614C630.535 147.614 663.594 114.555 663.594 73.7409Z" fill="#EE2964"/>
</g>
<defs>
<clipPath id="clip0_7_542">
<rect width="696" height="110" fill="white"/>
</clipPath>
<clipPath id="clip1_7_542">
<rect width="147.57" height="295.139" fill="white" transform="matrix(4.37114e-08 1 1 -4.37114e-08 220.709 -0.000152588)"/>
</clipPath>
</defs>
</svg>
