<svg width="28" height="27" viewBox="0 0 28 27" fill="none" xmlns="http://www.w3.org/2000/svg">
<path d="M17.627 9.22033L11.907 14.9537L9.707 12.7537C9.58747 12.6141 9.44038 12.5007 9.27496 12.4207C9.10954 12.3407 8.92936 12.2957 8.74574 12.2886C8.56211 12.2815 8.379 12.3124 8.2079 12.3795C8.0368 12.4465 7.8814 12.5482 7.75146 12.6781C7.62152 12.8081 7.51985 12.9635 7.45282 13.1346C7.38578 13.3057 7.35484 13.4888 7.36193 13.6724C7.36903 13.856 7.414 14.0362 7.49403 14.2016C7.57406 14.367 7.68742 14.5141 7.827 14.6337L10.9603 17.7803C11.0849 17.9039 11.2327 18.0017 11.3951 18.068C11.5576 18.1344 11.7315 18.168 11.907 18.167C12.2568 18.1655 12.592 18.0267 12.8403 17.7803L19.507 11.1137C19.632 10.9897 19.7312 10.8422 19.7989 10.6798C19.8665 10.5173 19.9014 10.343 19.9014 10.167C19.9014 9.99098 19.8665 9.8167 19.7989 9.65422C19.7312 9.49174 19.632 9.34428 19.507 9.22033C19.2572 8.97199 18.9192 8.8326 18.567 8.8326C18.2148 8.8326 17.8768 8.97199 17.627 9.22033ZM14.0003 0.166992C11.3632 0.166992 8.78538 0.948979 6.59273 2.41406C4.40007 3.87915 2.69111 5.96153 1.68194 8.39788C0.672769 10.8342 0.408725 13.5151 0.923194 16.1015C1.43766 18.6879 2.70754 21.0637 4.57224 22.9284C6.43694 24.7931 8.81271 26.063 11.3991 26.5775C13.9855 27.0919 16.6664 26.8279 19.1028 25.8187C21.5391 24.8096 23.6215 23.1006 25.0866 20.9079C26.5517 18.7153 27.3337 16.1374 27.3337 13.5003C27.3337 11.7494 26.9888 10.0156 26.3187 8.39788C25.6487 6.7802 24.6665 5.31035 23.4284 4.07224C22.1903 2.83412 20.7205 1.85199 19.1028 1.18193C17.4851 0.511869 15.7513 0.166992 14.0003 0.166992ZM14.0003 24.167C11.8907 24.167 9.82837 23.5414 8.07425 22.3693C6.32012 21.1973 4.95295 19.5314 4.14562 17.5823C3.33828 15.6332 3.12705 13.4885 3.53862 11.4194C3.9502 9.35023 4.9661 7.44961 6.45786 5.95785C7.94962 4.46609 9.85024 3.45019 11.9194 3.03862C13.9885 2.62704 16.1332 2.83828 18.0823 3.64561C20.0314 4.45295 21.6973 5.82012 22.8693 7.57424C24.0414 9.32837 24.667 11.3907 24.667 13.5003C24.667 16.3293 23.5432 19.0424 21.5428 21.0428C19.5424 23.0432 16.8293 24.167 14.0003 24.167Z" fill="#339900"/>
</svg>
