<svg width="134" height="31" viewBox="0 0 134 31" fill="none" xmlns="http://www.w3.org/2000/svg">
<g clip-path="url(#clip0_6_12231)">
<path d="M38.2658 12.7139H41.1533C41.3857 12.7077 41.6151 12.767 41.8153 12.8851C41.8997 12.9314 41.9733 12.995 42.0312 13.0718C42.0892 13.1486 42.1302 13.2368 42.1515 13.3306L43.3519 18.6374C43.4454 19.0417 43.53 19.4335 43.6056 19.813C43.684 20.1946 43.7541 20.57 43.8118 20.9433C43.9191 20.57 44.0325 20.1967 44.1542 19.8192C44.2759 19.4418 44.3914 19.0479 44.5069 18.6374L46.0146 13.3182C46.0678 13.1349 46.1877 12.9782 46.3508 12.8789C46.5345 12.7589 46.7501 12.6971 46.9695 12.7016H48.5783C48.8096 12.6951 49.0376 12.7568 49.2341 12.8789C49.4 12.9765 49.5224 13.1336 49.5765 13.3182L51.0203 18.6374C51.1275 19.0499 51.2389 19.4335 51.3503 19.813C51.4616 20.1925 51.5689 20.5782 51.67 20.966C51.7318 20.5865 51.8061 20.207 51.8968 19.8316C51.9876 19.4562 52.0804 19.0561 52.1794 18.6374L53.4561 13.3306C53.477 13.2375 53.5171 13.1497 53.574 13.073C53.6308 12.9963 53.7031 12.9323 53.7861 12.8851C53.9715 12.7696 54.1864 12.7101 54.4048 12.7139H57.1418L53.4066 24.5506H50.4716C50.3278 24.5545 50.1876 24.5053 50.0777 24.4124C49.9504 24.2886 49.8622 24.1301 49.824 23.9566L48.106 18.0558C48.0296 17.7897 47.9554 17.5278 47.8853 17.2679C47.8152 17.008 47.7553 16.7502 47.6996 16.4924C47.646 16.7578 47.5862 17.0218 47.5202 17.2844C47.4542 17.5484 47.38 17.8124 47.2954 18.0785L45.5547 23.9566C45.5201 24.1312 45.4237 24.2875 45.2831 24.3966C45.1425 24.5058 44.9672 24.5604 44.7895 24.5506H42.0051L38.2658 12.7139Z" fill="#3A3A3A"/>
<path d="M62.3248 9.47168C62.3264 9.74591 62.2673 10.0171 62.1516 10.2657C62.037 10.5115 61.8751 10.7323 61.6751 10.9154C61.4706 11.1055 61.2329 11.2565 60.9739 11.3609C60.7035 11.4713 60.4141 11.5274 60.1221 11.5259C59.8386 11.5282 59.5578 11.472 59.2971 11.3609C59.0458 11.2547 58.8158 11.1038 58.6185 10.9154C58.422 10.732 58.2642 10.5111 58.1544 10.2657C58.0409 10.0165 57.9832 9.74552 57.9853 9.47168C57.983 9.1925 58.0407 8.91607 58.1544 8.66112C58.2639 8.41198 58.4216 8.18697 58.6185 7.99906C58.8147 7.80931 59.0449 7.65818 59.2971 7.55356C59.5588 7.44633 59.8392 7.39234 60.1221 7.39475C60.4135 7.39323 60.7026 7.44712 60.9739 7.55356C61.2337 7.65641 61.4716 7.80758 61.6751 7.99906C61.8756 8.18655 62.0375 8.41146 62.1516 8.66112C62.2676 8.91547 62.3268 9.1921 62.3248 9.47168ZM61.9123 12.7139V24.5506H58.3133V12.7139H61.9123Z" fill="#3A3A3A"/>
<path d="M73.4582 14.1288C73.4594 14.3681 73.4124 14.6052 73.32 14.8259C73.2369 15.0292 73.1273 15.2206 72.9941 15.3952L67.9658 21.925H73.3282V24.5506H63.8408V23.1069C63.85 22.9204 63.8911 22.7369 63.9624 22.5644C64.0479 22.3436 64.1631 22.1354 64.3048 21.9457L69.3724 15.3457H64.1584V12.7139H73.4582V14.1288Z" fill="#3A3A3A"/>
<path d="M80.3717 12.5304C81.1163 12.5217 81.8565 12.6453 82.5579 12.8954C83.1949 13.1243 83.7757 13.4864 84.2615 13.9576C84.75 14.4404 85.1297 15.0219 85.3753 15.6633C85.6521 16.3943 85.7878 17.1711 85.7754 17.9527C85.7779 18.1698 85.7662 18.3868 85.7403 18.6024C85.7264 18.7433 85.6828 18.8796 85.6125 19.0025C85.5551 19.0976 85.4671 19.1703 85.3629 19.2087C85.2336 19.2497 85.0983 19.2685 84.9628 19.2644H78.0287C78.1442 20.2544 78.4494 20.9722 78.9444 21.4177C79.4743 21.8754 80.1589 22.1136 80.8584 22.0839C81.2234 22.0919 81.5874 22.0425 81.9371 21.9374C82.2141 21.8479 82.4838 21.7369 82.7435 21.6054L83.3912 21.2754C83.5829 21.178 83.7949 21.1271 84.0099 21.1269C84.1353 21.1191 84.2607 21.1432 84.3743 21.1969C84.4879 21.2507 84.586 21.3323 84.6596 21.4342L85.7032 22.7005C85.3563 23.1018 84.9518 23.4493 84.5028 23.7318C84.0877 23.9887 83.644 24.1964 83.1808 24.3505C82.7393 24.4961 82.2848 24.599 81.8237 24.6579C81.3948 24.7134 80.9629 24.7417 80.5305 24.7424C79.7217 24.7459 78.9187 24.6063 78.1586 24.3299C77.4356 24.069 76.7757 23.6585 76.2219 23.1254C75.65 22.5633 75.2036 21.8864 74.9122 21.1392C74.575 20.2584 74.4118 19.3205 74.4317 18.3776C74.4277 17.609 74.5677 16.8465 74.8442 16.1294C75.1099 15.4373 75.5125 14.806 76.028 14.2732C76.5584 13.7295 77.1934 13.2987 77.8946 13.0068C78.6794 12.6814 79.5222 12.5193 80.3717 12.5304ZM80.4397 14.9744C79.7529 14.9744 79.2146 15.1662 78.8289 15.5499C78.4059 16.0092 78.1382 16.5901 78.0637 17.2102H82.5517C82.5526 16.9314 82.5151 16.6538 82.4403 16.3852C82.371 16.1252 82.2489 15.8822 82.0815 15.6716C81.9056 15.4534 81.6809 15.2796 81.4256 15.1642C81.1153 15.0281 80.7784 14.9633 80.4397 14.9744Z" fill="#3A3A3A"/>
<path d="M97.7255 15.1497C97.5642 14.6154 97.2962 14.1193 96.9376 13.6916C96.5819 13.2788 96.1349 12.9547 95.6321 12.7449C95.0669 12.5164 94.4616 12.4042 93.8521 12.4149C93.0879 12.4005 92.3315 12.571 91.6473 12.9119C91.1515 13.1697 90.6911 13.4907 90.2778 13.8669V8.37857C90.2778 8.10506 90.1692 7.84277 89.9758 7.64937C89.7824 7.45597 89.5201 7.34732 89.2466 7.34732H88.0091C87.9544 7.34732 87.9019 7.36905 87.8632 7.40773C87.8246 7.44641 87.8028 7.49887 87.8028 7.55357V23.542C87.8028 23.8155 87.9115 24.0778 88.1049 24.2712C88.2983 24.4646 88.5606 24.5733 88.8341 24.5733H90.0716C90.1263 24.5733 90.1787 24.5516 90.2174 24.5129C90.2561 24.4742 90.2778 24.4217 90.2778 24.367V17.1937C90.2734 16.72 90.3958 16.2537 90.6322 15.8432C90.8687 15.4327 91.2106 15.0928 91.6226 14.8589H91.637C92.1312 14.5876 92.6861 14.4456 93.2499 14.4464C94.0274 14.4464 94.5843 14.6527 94.9535 15.0982C95.3227 15.5437 95.5145 16.181 95.5145 17.0019V23.54C95.5145 23.8135 95.6232 24.0758 95.8166 24.2692C96.0099 24.4626 96.2722 24.5712 96.5458 24.5712H97.7832C97.8379 24.5712 97.8904 24.5495 97.9291 24.5108C97.9678 24.4721 97.9895 24.4197 97.9895 24.365V17.0019C97.9959 16.3747 97.9069 15.7502 97.7255 15.1497Z" fill="#3A3A3A"/>
<path d="M110.096 12.0374H108.838C108.565 12.0374 108.302 12.1461 108.109 12.3395C107.916 12.5329 107.807 12.7952 107.807 13.0687V19.4624C107.811 19.8582 107.75 20.252 107.625 20.6277C107.518 20.9493 107.346 21.2454 107.12 21.4981C106.897 21.7401 106.624 21.9302 106.32 22.055C105.967 22.1967 105.59 22.2668 105.21 22.2612C104.829 22.2686 104.45 22.1985 104.097 22.055C103.791 21.9289 103.516 21.7374 103.292 21.494C103.067 21.2418 102.895 20.9464 102.787 20.6257C102.666 20.25 102.608 19.8569 102.616 19.4624V12.2437C102.616 12.189 102.594 12.1365 102.555 12.0978C102.517 12.0592 102.464 12.0374 102.409 12.0374H101.151C100.878 12.0374 100.616 12.1461 100.422 12.3395C100.229 12.5329 100.12 12.7952 100.12 13.0687V19.4624C100.115 20.145 100.234 20.8228 100.471 21.463C100.696 22.0745 101.047 22.6315 101.503 23.0975C101.958 23.5635 102.507 23.9279 103.113 24.167C104.471 24.6813 105.97 24.6813 107.328 24.167C107.936 23.9244 108.487 23.5569 108.943 23.0883C109.39 22.6212 109.736 22.0682 109.962 21.463C110.199 20.8227 110.318 20.145 110.313 19.4624V12.2437C110.313 12.2157 110.307 12.188 110.296 12.1623C110.285 12.1366 110.269 12.1134 110.249 12.0941C110.229 12.0748 110.205 12.0598 110.178 12.0501C110.152 12.0403 110.124 12.036 110.096 12.0374Z" fill="#3A3A3A"/>
<path d="M122.902 15.9149C122.717 15.2222 122.401 14.5712 121.972 13.9968C121.584 13.4864 121.076 13.0792 120.493 12.8109C119.886 12.5416 119.227 12.4066 118.563 12.4149C117.774 12.4008 116.994 12.5837 116.294 12.947C115.793 13.2173 115.331 13.5561 114.923 13.9535V7.55975C114.923 7.50505 114.901 7.45259 114.862 7.41391C114.824 7.37523 114.771 7.3535 114.716 7.3535H113.464C113.191 7.3535 112.929 7.46215 112.735 7.65555C112.542 7.84894 112.433 8.11124 112.433 8.38475V24.3732C112.433 24.4279 112.455 24.4804 112.494 24.5191C112.532 24.5577 112.585 24.5795 112.639 24.5795H113.974C114.149 24.5906 114.321 24.5354 114.458 24.425C114.594 24.3145 114.683 24.1569 114.708 23.9834C114.708 23.9834 114.708 23.9669 114.708 23.9607L114.784 23.3812C115.111 23.7348 115.493 24.0335 115.915 24.266C116.542 24.5865 117.24 24.744 117.944 24.7238C118.687 24.7394 119.424 24.5849 120.098 24.2721C120.772 23.9593 121.366 23.4965 121.834 22.9192C122.299 22.332 122.649 21.6623 122.865 20.9454C123.108 20.1543 123.228 19.3308 123.222 18.5034C123.234 17.63 123.126 16.7592 122.902 15.9149ZM119.928 15.3622C120.191 15.7423 120.378 16.1695 120.479 16.6203C120.623 17.2402 120.692 17.8752 120.685 18.5116C120.685 19.8811 120.403 20.9454 119.846 21.6734C119.289 22.4015 118.52 22.7459 117.48 22.7459C116.989 22.7521 116.502 22.653 116.053 22.4551C115.609 22.2388 115.226 21.9147 114.939 21.5125V17.237C114.933 16.7677 115.048 16.3048 115.273 15.8927C115.498 15.4806 115.824 15.1332 116.222 14.8837H116.236C116.741 14.5919 117.316 14.4442 117.899 14.4567C118.304 14.4493 118.706 14.5251 119.081 14.6795C119.419 14.8282 119.711 15.0637 119.928 15.3622Z" fill="#3A3A3A"/>
<mask id="mask0_6_12231" style="mask-type:luminance" maskUnits="userSpaceOnUse" x="18" y="0" width="16" height="31">
<path d="M18.272 3.20788C18.2717 3.7309 18.3769 4.24859 18.5813 4.73001L22.0773 7.08744L27.8522 10.9773L26.0187 12.1014L23.7685 13.4812L19.1939 10.6803C19.0749 10.6076 18.9484 10.5481 18.8164 10.5029C18.3872 11.2284 18.206 12.074 18.3002 12.9116C18.3943 13.7493 18.7587 14.5335 19.3383 15.1456L20.0313 15.5581L20.1921 15.6571L20.0704 15.7293L19.2331 16.2429C18.6897 16.8656 18.3593 17.6455 18.2899 18.469C18.2206 19.2926 18.4159 20.1168 18.8474 20.8216C18.9482 20.7826 19.0455 20.7349 19.1382 20.6793L23.7685 17.8413L26.0104 19.2149L27.7264 20.2668L21.1038 24.3258L19.3011 25.4292C18.732 26.0455 18.378 26.8296 18.2921 27.664C18.2062 28.4984 18.3931 29.3382 18.8247 30.0575C18.9324 30.0181 19.036 29.9684 19.1341 29.909L25.4618 26.0624L32.2846 21.8879C32.6418 21.6687 32.9151 21.3359 33.0605 20.9428C33.206 20.5497 33.2153 20.1192 33.0869 19.7202C32.9413 19.2873 32.6448 18.9213 32.2515 18.689L31.309 18.1094L27.9533 16.0552L27.3346 15.6819L32.2268 12.683C32.6105 12.4547 32.9024 12.0994 33.0518 11.6786C33.1862 11.2894 33.1883 10.8667 33.0577 10.4762C32.9272 10.0857 32.6713 9.74925 32.3299 9.51912L25.5918 4.98163L19.198 0.6772C18.5823 1.38196 18.2436 2.28647 18.2451 3.22232" fill="white"/>
</mask>
<g mask="url(#mask0_6_12231)">
<path d="M33.3509 0.662773H18.2719V30.0905H33.3509V0.662773Z" fill="url(#paint0_linear_6_12231)"/>
</g>
<mask id="mask1_6_12231" style="mask-type:luminance" maskUnits="userSpaceOnUse" x="0" y="0" width="16" height="31">
<path d="M7.94711 4.96719L1.20894 9.50468C0.868052 9.73529 0.612622 10.0718 0.482139 10.4621C0.351656 10.8524 0.353388 11.2749 0.487066 11.6641C0.636478 12.0849 0.928316 12.4402 1.31206 12.6685L6.20431 15.6674L5.58556 16.0407L2.23812 18.0909L1.29556 18.6704C0.906198 18.9046 0.613537 19.2704 0.470565 19.7017C0.342129 20.1006 0.351397 20.5312 0.496881 20.9242C0.642366 21.3173 0.915639 21.6501 1.27288 21.8693L8.10593 26.0624L14.4316 29.9378C14.5297 29.9972 14.6333 30.047 14.741 30.0863C15.1726 29.3671 15.3595 28.5273 15.2736 27.6929C15.1877 26.8584 14.8336 26.0743 14.2645 25.4581L12.4619 24.3547L5.83924 20.2957L7.55524 19.2438L9.80336 17.866L14.4316 20.6999C14.5243 20.7556 14.6216 20.8032 14.7224 20.8422C15.1539 20.1374 15.3492 19.3132 15.2799 18.4896C15.2105 17.6661 14.8801 16.8862 14.3367 16.2635L13.4994 15.7499L13.3797 15.6777L13.5406 15.5787L14.2315 15.1662C14.8149 14.5529 15.1816 13.7656 15.2758 12.9244C15.3701 12.0832 15.1866 11.2343 14.7534 10.5071C14.6214 10.5522 14.4949 10.6117 14.3759 10.6844L9.80336 13.4812L7.5573 12.1055L5.72374 10.9814L11.4987 7.09156L15.005 4.73413C15.2879 4.06163 15.3756 3.32304 15.2582 2.60298C15.1407 1.88291 14.8228 1.2105 14.3409 0.662758L7.94711 4.96719Z" fill="white"/>
</mask>
<g mask="url(#mask1_6_12231)">
<path d="M15.2937 0.662735H0.214813V30.0904H15.2937V0.662735Z" fill="url(#paint1_linear_6_12231)"/>
</g>
<path d="M125.233 12.6553V9.50882H124.036V8.96022H127.055V9.50882H125.849V12.6553H125.233ZM127.468 12.6553V8.96022H128.375L129.309 11.9118L130.211 8.96022H131.1V12.6553H130.537V9.55416L129.585 12.6553H129.028L128.035 9.50882V12.6553H127.468Z" fill="#3A3A3A"/>
</g>
<defs>
<linearGradient id="paint0_linear_6_12231" x1="-0.178658" y1="17.8967" x2="30.2122" y2="17.8967" gradientUnits="userSpaceOnUse">
<stop stop-color="#FBB040"/>
<stop offset="0.49" stop-color="#FACC3A"/>
<stop offset="1" stop-color="#F9ED32"/>
</linearGradient>
<linearGradient id="paint1_linear_6_12231" x1="-0.178629" y1="17.8967" x2="30.2123" y2="17.8967" gradientUnits="userSpaceOnUse">
<stop stop-color="#FBB040"/>
<stop offset="0.49" stop-color="#FACC3A"/>
<stop offset="1" stop-color="#F9ED32"/>
</linearGradient>
<clipPath id="clip0_6_12231">
<rect width="132.811" height="30" fill="white" transform="translate(0.204498 0.5)"/>
</clipPath>
</defs>
</svg>
