<svg width="134" height="32" viewBox="0 0 134 32" fill="none" xmlns="http://www.w3.org/2000/svg">
<g clip-path="url(#clip0_6_12232)">
<path d="M38.2658 13.3591H41.1533C41.3857 13.3528 41.6151 13.4122 41.8153 13.5303C41.8997 13.5766 41.9733 13.6402 42.0312 13.717C42.0892 13.7938 42.1302 13.882 42.1515 13.9758L43.3519 19.2826C43.4454 19.6868 43.53 20.0787 43.6056 20.4582C43.684 20.8398 43.7541 21.2151 43.8118 21.5884C43.9191 21.2151 44.0325 20.8418 44.1542 20.4644C44.2759 20.087 44.3914 19.693 44.5069 19.2826L46.0146 13.9634C46.0678 13.7801 46.1877 13.6233 46.3508 13.5241C46.5345 13.4041 46.7501 13.3423 46.9695 13.3467H48.5783C48.8096 13.3402 49.0376 13.4019 49.2341 13.5241C49.4 13.6217 49.5224 13.7788 49.5765 13.9634L51.0203 19.2826C51.1275 19.6951 51.2389 20.0787 51.3503 20.4582C51.4616 20.8377 51.5689 21.2234 51.67 21.6111C51.7318 21.2316 51.8061 20.8521 51.8968 20.4768C51.9876 20.1014 52.0804 19.7013 52.1794 19.2826L53.4561 13.9758C53.477 13.8826 53.5171 13.7949 53.574 13.7181C53.6308 13.6414 53.7031 13.5774 53.7861 13.5303C53.9715 13.4147 54.1864 13.3553 54.4048 13.3591H57.1418L53.4066 25.1958H50.4716C50.3278 25.1996 50.1876 25.1504 50.0777 25.0576C49.9504 24.9337 49.8622 24.7752 49.824 24.6018L48.106 18.701C48.0296 18.4349 47.9554 18.173 47.8853 17.9131C47.8152 17.6532 47.7553 17.3954 47.6996 17.1376C47.646 17.403 47.5862 17.667 47.5202 17.9296C47.4542 18.1936 47.38 18.4576 47.2954 18.7236L45.5547 24.6018C45.5201 24.7764 45.4237 24.9326 45.2831 25.0418C45.1425 25.1509 44.9672 25.2056 44.7895 25.1958H42.0051L38.2658 13.3591Z" fill="white"/>
<path d="M62.3248 10.1168C62.3264 10.3911 62.2673 10.6623 62.1516 10.9109C62.037 11.1567 61.8751 11.3775 61.6751 11.5606C61.4706 11.7507 61.2329 11.9017 60.9739 12.0061C60.7035 12.1165 60.4141 12.1726 60.1221 12.1711C59.8386 12.1734 59.5578 12.1172 59.2971 12.0061C59.0458 11.8999 58.8158 11.749 58.6185 11.5606C58.422 11.3772 58.2642 11.1563 58.1544 10.9109C58.0409 10.6617 57.9832 10.3907 57.9853 10.1168C57.983 9.83767 58.0407 9.56125 58.1544 9.30629C58.2639 9.05715 58.4216 8.83214 58.6185 8.64423C58.8147 8.45448 59.0449 8.30335 59.2971 8.19873C59.5588 8.0915 59.8392 8.03752 60.1221 8.03992C60.4135 8.0384 60.7026 8.09229 60.9739 8.19873C61.2337 8.30158 61.4716 8.45275 61.6751 8.64423C61.8756 8.83172 62.0375 9.05663 62.1516 9.30629C62.2676 9.56064 62.3268 9.83727 62.3248 10.1168ZM61.9123 13.3591V25.1958H58.3133V13.3591H61.9123Z" fill="white"/>
<path d="M73.4582 14.774C73.4594 15.0133 73.4124 15.2504 73.32 15.4711C73.2369 15.6744 73.1273 15.8658 72.9941 16.0403L67.9657 22.5702H73.3282V25.1958H63.8407V23.752C63.85 23.5656 63.8911 23.3821 63.9624 23.2096C64.0479 22.9887 64.1631 22.7805 64.3048 22.5908L69.3724 15.9908H64.1584V13.3591H73.4582V14.774Z" fill="white"/>
<path d="M80.3717 13.1755C81.1163 13.1669 81.8565 13.2905 82.5579 13.5406C83.1949 13.7695 83.7757 14.1316 84.2615 14.6028C84.75 15.0855 85.1297 15.6671 85.3753 16.3085C85.6521 17.0395 85.7878 17.8163 85.7754 18.5978C85.7779 18.8149 85.7662 19.032 85.7403 19.2475C85.7264 19.3884 85.6828 19.5248 85.6125 19.6476C85.5551 19.7427 85.4671 19.8155 85.3629 19.8539C85.2336 19.8949 85.0983 19.9137 84.9628 19.9096H78.0287C78.1442 20.8996 78.4494 21.6173 78.9444 22.0628C79.4743 22.5205 80.1589 22.7588 80.8584 22.729C81.2234 22.7371 81.5874 22.6876 81.9371 22.5826C82.2141 22.4931 82.4838 22.382 82.7435 22.2505L83.3912 21.9205C83.5829 21.8231 83.7949 21.7723 84.0099 21.772C84.1353 21.7643 84.2607 21.7884 84.3743 21.8421C84.4879 21.8958 84.586 21.9774 84.6596 22.0793L85.7032 23.3457C85.3563 23.7469 84.9518 24.0945 84.5028 24.3769C84.0877 24.6339 83.644 24.8415 83.1808 24.9957C82.7393 25.1413 82.2848 25.2442 81.8237 25.303C81.3948 25.3586 80.9629 25.3868 80.5305 25.3876C79.7217 25.3911 78.9187 25.2514 78.1586 24.9751C77.4356 24.7141 76.7757 24.3037 76.2219 23.7706C75.65 23.2085 75.2036 22.5315 74.9122 21.7844C74.575 20.9036 74.4118 19.9657 74.4317 19.0227C74.4277 18.2542 74.5677 17.4917 74.8442 16.7746C75.1099 16.0825 75.5125 15.4511 76.028 14.9183C76.5584 14.3746 77.1934 13.9439 77.8946 13.652C78.6794 13.3266 79.5222 13.1645 80.3717 13.1755ZM80.4397 15.6196C79.7529 15.6196 79.2146 15.8114 78.8289 16.195C78.4059 16.6544 78.1382 17.2353 78.0637 17.8553H82.5517C82.5526 17.5765 82.5151 17.2989 82.4403 17.0303C82.371 16.7703 82.2489 16.5274 82.0815 16.3167C81.9056 16.0986 81.6809 15.9248 81.4256 15.8093C81.1153 15.6733 80.7784 15.6084 80.4397 15.6196Z" fill="white"/>
<path d="M97.7255 15.7949C97.5642 15.2605 97.2962 14.7645 96.9376 14.3367C96.5819 13.924 96.1349 13.5999 95.6321 13.39C95.0669 13.1616 94.4616 13.0494 93.8521 13.06C93.0879 13.0457 92.3315 13.2162 91.6473 13.5571C91.1515 13.8149 90.6911 14.1359 90.2778 14.512V9.02373C90.2778 8.75022 90.1692 8.48792 89.9758 8.29453C89.7824 8.10113 89.5201 7.99248 89.2466 7.99248H88.0091C87.9544 7.99248 87.9019 8.01421 87.8632 8.05289C87.8246 8.09157 87.8028 8.14403 87.8028 8.19873V24.1872C87.8028 24.4607 87.9115 24.723 88.1049 24.9164C88.2983 25.1098 88.5606 25.2184 88.8341 25.2184H90.0716C90.1263 25.2184 90.1787 25.1967 90.2174 25.158C90.2561 25.1194 90.2778 25.0669 90.2778 25.0122V17.8388C90.2734 17.3651 90.3958 16.8988 90.6322 16.4883C90.8687 16.0778 91.2106 15.738 91.6226 15.5041H91.637C92.1312 15.2327 92.6861 15.0908 93.2499 15.0916C94.0274 15.0916 94.5843 15.2978 94.9535 15.7433C95.3227 16.1888 95.5145 16.8262 95.5145 17.647V24.1851C95.5145 24.4586 95.6232 24.7209 95.8166 24.9143C96.0099 25.1077 96.2722 25.2164 96.5458 25.2164H97.7832C97.8379 25.2164 97.8904 25.1947 97.9291 25.156C97.9678 25.1173 97.9895 25.0648 97.9895 25.0101V17.647C97.9959 17.0198 97.9069 16.3953 97.7255 15.7949Z" fill="white"/>
<path d="M110.096 12.6826H108.838C108.565 12.6826 108.302 12.7912 108.109 12.9846C107.916 13.178 107.807 13.4403 107.807 13.7138V20.1076C107.811 20.5034 107.75 20.8971 107.625 21.2729C107.518 21.5944 107.346 21.8906 107.12 22.1433C106.897 22.3853 106.624 22.5754 106.32 22.7001C105.967 22.8418 105.59 22.912 105.21 22.9064C104.829 22.9138 104.45 22.8436 104.097 22.7001C103.791 22.574 103.516 22.3826 103.292 22.1391C103.067 21.887 102.895 21.5915 102.787 21.2708C102.666 20.8951 102.608 20.5021 102.616 20.1076V12.8889C102.616 12.8341 102.594 12.7817 102.555 12.743C102.517 12.7043 102.464 12.6826 102.409 12.6826H101.151C100.878 12.6826 100.616 12.7912 100.422 12.9846C100.229 13.178 100.12 13.4403 100.12 13.7138V20.1076C100.115 20.7902 100.234 21.4679 100.471 22.1082C100.696 22.7197 101.047 23.2767 101.503 23.7426C101.958 24.2086 102.507 24.5731 103.113 24.8121C104.471 25.3264 105.97 25.3264 107.328 24.8121C107.936 24.5696 108.487 24.2021 108.943 23.7335C109.39 23.2663 109.736 22.7134 109.962 22.1082C110.199 21.4679 110.318 20.7901 110.313 20.1076V12.8889C110.313 12.8609 110.307 12.8332 110.296 12.8075C110.285 12.7817 110.269 12.7585 110.249 12.7392C110.229 12.7199 110.205 12.705 110.178 12.6952C110.152 12.6855 110.124 12.6812 110.096 12.6826Z" fill="white"/>
<path d="M122.902 16.5601C122.717 15.8674 122.401 15.2164 121.972 14.642C121.584 14.1316 121.076 13.7244 120.493 13.456C119.886 13.1868 119.227 13.0517 118.563 13.06C117.774 13.046 116.994 13.2289 116.294 13.5921C115.793 13.8625 115.331 14.2012 114.923 14.5986V8.20491C114.923 8.15021 114.901 8.09775 114.862 8.05907C114.824 8.02039 114.771 7.99866 114.716 7.99866H113.464C113.191 7.99866 112.929 8.10731 112.735 8.30071C112.542 8.4941 112.433 8.7564 112.433 9.02991V25.0184C112.433 25.0731 112.455 25.1255 112.494 25.1642C112.532 25.2029 112.585 25.2246 112.639 25.2246H113.974C114.149 25.2358 114.321 25.1806 114.458 25.0701C114.594 24.9597 114.683 24.802 114.708 24.6286C114.708 24.6286 114.708 24.6121 114.708 24.6059L114.784 24.0263C115.111 24.3799 115.493 24.6787 115.915 24.9111C116.542 25.2317 117.24 25.3891 117.944 25.369C118.687 25.3845 119.424 25.23 120.098 24.9172C120.772 24.6045 121.366 24.1417 121.834 23.5643C122.299 22.9772 122.649 22.3075 122.865 21.5905C123.108 20.7995 123.228 19.976 123.222 19.1485C123.234 18.2752 123.126 17.4043 122.902 16.5601ZM119.928 16.0073C120.191 16.3875 120.378 16.8146 120.479 17.2655C120.623 17.8854 120.692 18.5204 120.685 19.1568C120.685 20.5263 120.403 21.5905 119.846 22.3186C119.289 23.0466 118.52 23.3911 117.48 23.3911C116.989 23.3973 116.502 23.2981 116.053 23.1003C115.609 22.8839 115.226 22.5599 114.939 22.1577V17.8821C114.933 17.4128 115.048 16.9499 115.273 16.5378C115.498 16.1258 115.824 15.7783 116.222 15.5288H116.236C116.741 15.2371 117.316 15.0894 117.899 15.1019C118.304 15.0945 118.706 15.1703 119.081 15.3246C119.419 15.4733 119.711 15.7089 119.928 16.0073Z" fill="white"/>
<mask id="mask0_6_12232" style="mask-type:luminance" maskUnits="userSpaceOnUse" x="18" y="1" width="16" height="30">
<path d="M18.272 3.85306C18.2717 4.37607 18.3769 4.89376 18.5813 5.37518L22.0773 7.73261L27.8522 11.6225L26.0187 12.7465L23.7685 14.1263L19.1939 11.3255C19.0749 11.2527 18.9484 11.1932 18.8164 11.1481C18.3872 11.8736 18.206 12.7191 18.3002 13.5568C18.3943 14.3945 18.7587 15.1787 19.3383 15.7908L20.0313 16.2033L20.1921 16.3023L20.0704 16.3745L19.2331 16.888C18.6897 17.5108 18.3593 18.2907 18.2899 19.1142C18.2206 19.9377 18.4159 20.7619 18.8474 21.4668C18.9482 21.4277 19.0455 21.3801 19.1382 21.3245L23.7685 18.4865L26.0104 19.8601L27.7264 20.912L21.1038 24.971L19.3011 26.0744C18.732 26.6906 18.378 27.4747 18.2921 28.3092C18.2062 29.1436 18.3931 29.9834 18.8247 30.7026C18.9324 30.6633 19.036 30.6135 19.1341 30.5541L25.4618 26.7076L32.2846 22.5331C32.6418 22.3139 32.9151 21.9811 33.0605 21.588C33.206 21.1949 33.2153 20.7644 33.0869 20.3654C32.9413 19.9325 32.6448 19.5664 32.2515 19.3342L31.309 18.7546L27.9533 16.7003L27.3346 16.327L32.2268 13.3282C32.6105 13.0998 32.9024 12.7445 33.0518 12.3237C33.1862 11.9345 33.1883 11.5119 33.0577 11.1214C32.9272 10.7309 32.6713 10.3944 32.3299 10.1643L25.5918 5.6268L19.198 1.32237C18.5823 2.02714 18.2436 2.93164 18.2451 3.86749" fill="white"/>
</mask>
<g mask="url(#mask0_6_12232)">
<path d="M33.3509 1.30797H18.272V30.7357H33.3509V1.30797Z" fill="url(#paint0_linear_6_12232)"/>
</g>
<mask id="mask1_6_12232" style="mask-type:luminance" maskUnits="userSpaceOnUse" x="0" y="1" width="16" height="30">
<path d="M7.9471 5.61235L1.20892 10.1498C0.868036 10.3805 0.612606 10.7169 0.482123 11.1073C0.351641 11.4976 0.353372 11.92 0.48705 12.3093C0.636463 12.7301 0.928301 13.0854 1.31205 13.3137L6.20429 16.3126L5.58554 16.6859L2.23811 18.736L1.29555 19.3156C0.906183 19.5497 0.613522 19.9156 0.47055 20.3468C0.342113 20.7458 0.351381 21.1763 0.496866 21.5694C0.642351 21.9625 0.915623 22.2953 1.27286 22.5145L8.10591 26.7076L14.4316 30.583C14.5297 30.6424 14.6333 30.6921 14.741 30.7315C15.1726 30.0122 15.3594 29.1724 15.2735 28.338C15.1876 27.5036 14.8336 26.7195 14.2645 26.1033L12.4619 24.9998L5.83923 20.9408L7.55523 19.889L9.80335 18.5112L14.4316 21.3451C14.5243 21.4007 14.6216 21.4483 14.7224 21.4874C15.1539 20.7825 15.3492 19.9584 15.2798 19.1348C15.2105 18.3113 14.8801 17.5314 14.3367 16.9086L13.4993 16.3951L13.3797 16.3229L13.5406 16.2239L14.2315 15.8114C14.8149 15.198 15.1816 14.4107 15.2758 13.5695C15.37 12.7283 15.1865 11.8794 14.7533 11.1522C14.6214 11.1974 14.4948 11.2568 14.3759 11.3296L9.80335 14.1263L7.55729 12.7507L5.72373 11.6266L11.4987 7.73672L15.005 5.37929C15.2879 4.70679 15.3756 3.9682 15.2581 3.24814C15.1407 2.52808 14.8228 1.85566 14.3408 1.30792L7.9471 5.61235Z" fill="white"/>
</mask>
<g mask="url(#mask1_6_12232)">
<path d="M15.2937 1.30792H0.214798V30.7356H15.2937V1.30792Z" fill="url(#paint1_linear_6_12232)"/>
</g>
<path d="M125.233 13.3005V10.154H124.036V9.6054H127.055V10.154H125.849V13.3005H125.233ZM127.468 13.3005V9.6054H128.375L129.309 12.5569L130.211 9.6054H131.1V13.3005H130.537V10.1993L129.585 13.3005H129.028L128.035 10.154V13.3005H127.468Z" fill="white"/>
</g>
<defs>
<linearGradient id="paint0_linear_6_12232" x1="0.399434" y1="18.5419" x2="30.7903" y2="18.5419" gradientUnits="userSpaceOnUse">
<stop stop-color="#FBB040"/>
<stop offset="0.49" stop-color="#FACC3A"/>
<stop offset="1" stop-color="#F9ED32"/>
</linearGradient>
<linearGradient id="paint1_linear_6_12232" x1="0.399433" y1="18.5419" x2="30.7903" y2="18.5419" gradientUnits="userSpaceOnUse">
<stop stop-color="#FBB040"/>
<stop offset="0.49" stop-color="#FACC3A"/>
<stop offset="1" stop-color="#F9ED32"/>
</linearGradient>
<clipPath id="clip0_6_12232">
<rect width="132.811" height="31" fill="white" transform="translate(0.204498 0.5)"/>
</clipPath>
</defs>
</svg>
