<svg width="37" height="34" viewBox="0 0 37 34" fill="none" xmlns="http://www.w3.org/2000/svg">
<mask id="mask0_813_319" style="mask-type:luminance" maskUnits="userSpaceOnUse" x="20" y="1" width="17" height="33">
<path d="M20.6284 3.77985C20.6282 4.35395 20.7437 4.92222 20.968 5.45066L24.8055 8.03838L31.1446 12.3082L29.1319 13.5421L26.6619 15.0567L21.6404 11.9822C21.5099 11.9024 21.3709 11.8371 21.2261 11.7875C20.755 12.5839 20.5561 13.512 20.6594 14.4315C20.7627 15.351 21.1628 16.2118 21.7989 16.8837L22.5596 17.3365L22.7362 17.4452L22.6026 17.5244L21.6834 18.0881C21.087 18.7717 20.7243 19.6278 20.6482 20.5318C20.572 21.4358 20.7864 22.3405 21.2601 23.1142C21.3708 23.0713 21.4776 23.019 21.5793 22.9579L26.6619 19.8427L29.1229 21.3505L31.0065 22.5052L23.7369 26.9606L21.7582 28.1719C21.1335 28.8483 20.7449 29.709 20.6506 30.625C20.5563 31.5409 20.7614 32.4627 21.2352 33.2522C21.3534 33.209 21.4671 33.1544 21.5748 33.0892L28.5206 28.8669L36.0099 24.2846C36.402 24.044 36.702 23.6787 36.8617 23.2472C37.0214 22.8157 37.0315 22.3431 36.8905 21.9052C36.7308 21.43 36.4053 21.0282 35.9736 20.7732L34.939 20.137L31.2555 17.8821L30.5763 17.4723L35.9465 14.1805C36.3677 13.9299 36.6881 13.5399 36.8521 13.078C36.9996 12.6508 37.0019 12.1868 36.8586 11.7582C36.7153 11.3295 36.4344 10.9602 36.0597 10.7076L28.6633 5.72686L21.645 1.00195C20.9691 1.77556 20.5974 2.76842 20.599 3.79569" fill="white"/>
</mask>
<g mask="url(#mask0_813_319)">
<path d="M37.1803 0.986328H20.6284V33.2887H37.1803V0.986328Z" fill="url(#paint0_linear_813_319)"/>
</g>
<mask id="mask1_813_319" style="mask-type:luminance" maskUnits="userSpaceOnUse" x="0" y="0" width="18" height="34">
<path d="M9.295 5.70928L1.89861 10.69C1.52442 10.9432 1.24404 11.3125 1.10081 11.741C0.957581 12.1694 0.959482 12.6331 1.10622 13.0604C1.27023 13.5223 1.59057 13.9123 2.01181 14.163L7.38195 17.4548L6.70276 17.8645L3.02833 20.1149L1.99369 20.7511C1.56629 21.0081 1.24504 21.4097 1.08811 21.8831C0.947123 22.321 0.957296 22.7936 1.11699 23.2251C1.27669 23.6566 1.57666 24.0219 1.96879 24.2625L9.46933 28.8652L16.4129 33.1192C16.5206 33.1844 16.6343 33.239 16.7525 33.2822C17.2263 32.4927 17.4314 31.5708 17.3371 30.6549C17.2428 29.739 16.8542 28.8783 16.2295 28.2018L14.2508 26.9906L6.98122 22.5351L8.86485 21.3805L11.3326 19.8682L16.4129 22.9789C16.5147 23.0399 16.6215 23.0922 16.7321 23.1351C17.2058 22.3614 17.4202 21.4567 17.3441 20.5527C17.2679 19.6487 16.9052 18.7926 16.3088 18.1091L15.3896 17.5453L15.2583 17.4661L15.4349 17.3574L16.1933 16.9046C16.8337 16.2314 17.2362 15.3671 17.3396 14.4438C17.4431 13.5204 17.2416 12.5885 16.7661 11.7903C16.6213 11.8399 16.4824 11.9052 16.3518 11.985L11.3326 15.055L8.86711 13.5449L6.85444 12.311L13.1936 8.04118L17.0423 5.45345C17.3528 4.71526 17.4492 3.90453 17.3202 3.11413C17.1913 2.32372 16.8423 1.58562 16.3133 0.984375L9.295 5.70928Z" fill="white"/>
</mask>
<g mask="url(#mask1_813_319)">
<path d="M17.3593 0.984375H0.807373V33.2867H17.3593V0.984375Z" fill="url(#paint1_linear_813_319)"/>
</g>
<defs>
<linearGradient id="paint0_linear_813_319" x1="1.01001" y1="19.9038" x2="34.3696" y2="19.9038" gradientUnits="userSpaceOnUse">
<stop stop-color="#FBB040"/>
<stop offset="0.49" stop-color="#FACC3A"/>
<stop offset="1" stop-color="#F9ED32"/>
</linearGradient>
<linearGradient id="paint1_linear_813_319" x1="1.01004" y1="19.9018" x2="34.3697" y2="19.9018" gradientUnits="userSpaceOnUse">
<stop stop-color="#FBB040"/>
<stop offset="0.49" stop-color="#FACC3A"/>
<stop offset="1" stop-color="#F9ED32"/>
</linearGradient>
</defs>
</svg>
