<svg width="16" height="14" viewBox="0 0 16 14" fill="none" xmlns="http://www.w3.org/2000/svg">
<path d="M15.5 6.37538H9.2225C8.94498 6.30076 8.66619 6.23096 8.38625 6.16601C6.63125 5.75101 5.63875 5.44726 5.63875 4.02663C5.6245 3.78139 5.66081 3.53584 5.74542 3.30522C5.83004 3.0746 5.96115 2.86384 6.13062 2.68601C6.6615 2.24944 7.32644 2.00889 8.01375 2.00476C9.7825 1.96101 10.5981 2.56101 11.265 3.47351L12.2744 2.73601C11.8019 2.05748 11.1578 1.51654 10.4078 1.16845C9.65779 0.820361 8.82884 0.677601 8.00563 0.754756C6.99439 0.761213 6.01887 1.12947 5.25563 1.79288C4.96634 2.08632 4.74024 2.4359 4.59125 2.82008C4.44227 3.20426 4.37356 3.61488 4.38937 4.02663C4.36197 4.47718 4.4466 4.92751 4.63572 5.33737C4.82483 5.74723 5.11254 6.10385 5.47312 6.37538H0.5V7.62538H9.0325C10.2619 7.98163 10.9969 8.44538 11.0156 9.72413C11.0359 9.99729 10.9985 10.2717 10.9056 10.5294C10.8128 10.7871 10.6667 11.0223 10.4769 11.2198C9.81551 11.7411 8.99384 12.017 8.15188 12.0004C7.52345 11.9822 6.90738 11.8213 6.35029 11.5299C5.7932 11.2385 5.30966 10.8243 4.93625 10.3185L3.97812 11.121C4.46358 11.768 5.08994 12.2959 5.80972 12.6648C6.52951 13.0338 7.32384 13.234 8.1325 13.2504H8.195C9.34924 13.2636 10.4695 12.86 11.35 12.1135C11.6625 11.7984 11.9054 11.4213 12.0632 11.0065C12.2209 10.5917 12.2898 10.1485 12.2656 9.70538C12.289 8.94741 12.0332 8.20725 11.5469 7.62538H15.5V6.37538Z" fill="#212529"/>
</svg>
