<svg width="20" height="15" viewBox="0 0 20 15" fill="none" xmlns="http://www.w3.org/2000/svg">
<path d="M18.2803 1.22405C17.9319 0.874451 17.518 0.597062 17.0621 0.407792C16.6063 0.218522 16.1176 0.121094 15.6241 0.121094C15.1305 0.121094 14.6418 0.218522 14.186 0.407792C13.7302 0.597062 13.3162 0.874451 12.9678 1.22405L13.8553 2.11155C14.088 1.87886 14.3642 1.69429 14.6683 1.56836C14.9723 1.44243 15.2981 1.37762 15.6272 1.37762C15.9563 1.37762 16.2821 1.44243 16.5861 1.56836C16.8901 1.69429 17.1664 1.87886 17.3991 2.11155C17.6318 2.34424 17.8163 2.62047 17.9423 2.92449C18.0682 3.22851 18.133 3.55436 18.133 3.88343C18.133 4.21249 18.0682 4.53834 17.9423 4.84236C17.8163 5.14638 17.6318 5.42261 17.3991 5.6553L12.3991 10.6553C11.93 11.1252 11.2934 11.3896 10.6294 11.3901C9.9654 11.3907 9.32837 11.1275 8.85844 10.6584C8.38851 10.1893 8.12418 9.55275 8.12359 8.88876C8.123 8.22476 8.38621 7.58773 8.85532 7.1178L9.73657 6.2303L8.85532 5.3428L7.96782 6.2303C7.61822 6.57869 7.34083 6.99266 7.15156 7.44848C6.96229 7.9043 6.86486 8.393 6.86486 8.88655C6.86486 9.3801 6.96229 9.8688 7.15156 10.3246C7.34083 10.7804 7.61822 11.1944 7.96782 11.5428C8.675 12.2409 9.63036 12.6298 10.6241 12.624C11.1195 12.6261 11.6105 12.5299 12.0685 12.3411C12.5266 12.1523 12.9427 11.8746 13.2928 11.524L18.2928 6.52405C18.9934 5.81927 19.3856 4.86522 19.3833 3.87146C19.3809 2.87771 18.9842 1.92552 18.2803 1.22405Z" fill="#212529"/>
<path d="M2.61782 12.5115C2.38444 12.2793 2.19925 12.0031 2.07288 11.6991C1.94652 11.395 1.88146 11.069 1.88146 10.7397C1.88146 10.4104 1.94652 10.0844 2.07288 9.78028C2.19925 9.47621 2.38444 9.2001 2.61782 8.9678L7.61782 3.9678C7.85011 3.73442 8.12622 3.54923 8.4303 3.42287C8.73437 3.2965 9.06041 3.23145 9.38969 3.23145C9.71897 3.23145 10.045 3.2965 10.3491 3.42287C10.6532 3.54923 10.9293 3.73442 11.1616 3.9678C11.3935 4.20193 11.576 4.48022 11.6984 4.78619C11.8208 5.09215 11.8805 5.41958 11.8741 5.74905C11.876 6.07955 11.8123 6.40715 11.6868 6.7129C11.5613 7.01865 11.3764 7.29647 11.1428 7.5303L9.81782 8.87405L10.7053 9.76155L12.0303 8.43655C12.7356 7.73124 13.1319 6.77463 13.1319 5.77718C13.1319 4.77972 12.7356 3.82311 12.0303 3.1178C11.325 2.41249 10.3684 2.01625 9.37094 2.01625C8.37348 2.01625 7.41688 2.41249 6.71157 3.1178L1.71157 8.1178C1.36103 8.4663 1.08284 8.88066 0.893018 9.33706C0.703192 9.79346 0.605469 10.2829 0.605469 10.7772C0.605469 11.2715 0.703192 11.7609 0.893018 12.2173C1.08284 12.6737 1.36103 13.088 1.71157 13.4365C2.42333 14.1293 3.38088 14.5115 4.37407 14.499C5.376 14.5 6.33764 14.1046 7.04907 13.399L6.16157 12.5115C5.92927 12.7449 5.65316 12.9301 5.34909 13.0565C5.04501 13.1829 4.71897 13.2479 4.38969 13.2479C4.06041 13.2479 3.73437 13.1829 3.4303 13.0565C3.12622 12.9301 2.85011 12.7449 2.61782 12.5115Z" fill="#212529"/>
</svg>
