<svg width="10" height="12" viewBox="0 0 10 12" fill="none" xmlns="http://www.w3.org/2000/svg">
<path d="M6.40625 11.625H0.625V0.375H5.9375C6.56385 0.375037 7.1771 0.554345 7.70482 0.891741C8.23253 1.22914 8.65264 1.71052 8.91554 2.27903C9.17843 2.84754 9.27312 3.47942 9.18841 4.10001C9.1037 4.72061 8.84314 5.30399 8.4375 5.78125C8.96733 6.20497 9.35279 6.78251 9.54082 7.43435C9.72886 8.0862 9.71022 8.7803 9.48748 9.42112C9.26474 10.0619 8.84884 10.6179 8.29704 11.0126C7.74524 11.4073 7.08466 11.6213 6.40625 11.625ZM2.5 9.75H6.39375C6.57842 9.75 6.76128 9.71363 6.9319 9.64296C7.10251 9.57229 7.25754 9.4687 7.38812 9.33812C7.5187 9.20754 7.62228 9.05251 7.69296 8.8819C7.76363 8.71128 7.8 8.52842 7.8 8.34375C7.8 8.15908 7.76363 7.97622 7.69296 7.8056C7.62228 7.63499 7.5187 7.47996 7.38812 7.34938C7.25754 7.2188 7.10251 7.11521 6.9319 7.04454C6.76128 6.97387 6.57842 6.9375 6.39375 6.9375H2.5V9.75ZM2.5 5.0625H5.9375C6.12217 5.0625 6.30503 5.02613 6.47565 4.95546C6.64626 4.88478 6.80129 4.7812 6.93187 4.65062C7.06245 4.52004 7.16604 4.36501 7.23671 4.1944C7.30738 4.02378 7.34375 3.84092 7.34375 3.65625C7.34375 3.47158 7.30738 3.28872 7.23671 3.1181C7.16604 2.94749 7.06245 2.79246 6.93187 2.66188C6.80129 2.5313 6.64626 2.42772 6.47565 2.35704C6.30503 2.28637 6.12217 2.25 5.9375 2.25H2.5V5.0625Z" fill="#212529"/>
</svg>
