<svg width="16" height="16" viewBox="0 0 16 16" fill="none" xmlns="http://www.w3.org/2000/svg">
<path d="M9.875 6.75C10.2458 6.75 10.6084 6.64003 10.9167 6.43401C11.225 6.22798 11.4654 5.93514 11.6073 5.59253C11.7492 5.24992 11.7863 4.87292 11.714 4.50921C11.6416 4.14549 11.463 3.8114 11.2008 3.54917C10.9386 3.28695 10.6045 3.10837 10.2408 3.03603C9.87708 2.96368 9.50008 3.00081 9.15747 3.14273C8.81486 3.28464 8.52202 3.52496 8.31599 3.83331C8.10997 4.14165 8 4.50416 8 4.875C8 5.37228 8.19754 5.84919 8.54917 6.20083C8.90081 6.55246 9.37772 6.75 9.875 6.75ZM9.875 4.25C9.99861 4.25 10.1195 4.28666 10.2222 4.35533C10.325 4.42401 10.4051 4.52162 10.4524 4.63582C10.4997 4.75003 10.5121 4.87569 10.488 4.99693C10.4639 5.11817 10.4044 5.22953 10.3169 5.31694C10.2295 5.40435 10.1182 5.46388 9.99693 5.48799C9.87569 5.51211 9.75003 5.49973 9.63582 5.45243C9.52162 5.40512 9.42401 5.32501 9.35533 5.22223C9.28666 5.11945 9.25 4.99861 9.25 4.875C9.25 4.70924 9.31585 4.55027 9.43306 4.43306C9.55027 4.31585 9.70924 4.25 9.875 4.25Z" fill="#212529"/>
<path d="M14.25 0.5H1.75C1.41848 0.5 1.10054 0.631696 0.866116 0.866116C0.631696 1.10054 0.5 1.41848 0.5 1.75V14.25C0.5 14.5815 0.631696 14.8995 0.866116 15.1339C1.10054 15.3683 1.41848 15.5 1.75 15.5H14.25C14.5815 15.5 14.8995 15.3683 15.1339 15.1339C15.3683 14.8995 15.5 14.5815 15.5 14.25V1.75C15.5 1.41848 15.3683 1.10054 15.1339 0.866116C14.8995 0.631696 14.5815 0.5 14.25 0.5ZM14.25 14.25H1.75V10.5L4.875 7.375L8.36875 10.8687C8.60295 11.1016 8.91977 11.2322 9.25 11.2322C9.58023 11.2322 9.89705 11.1016 10.1313 10.8687L11.125 9.875L14.25 13V14.25ZM14.25 11.2312L12.0063 8.9875C11.772 8.75469 11.4552 8.62401 11.125 8.62401C10.7948 8.62401 10.478 8.75469 10.2437 8.9875L9.25 9.98125L5.75625 6.4875C5.52205 6.25469 5.20523 6.12401 4.875 6.12401C4.54477 6.12401 4.22795 6.25469 3.99375 6.4875L1.75 8.73125V1.75H14.25V11.2312Z" fill="#212529"/>
</svg>
